:SAMPLES-PER-SECOND 30
:FULLY-SPECIFIED
:DEGREES
16
root  -67.3165 41.5252 -1.74866 6.39348 85.5504 4.63529
RightUpLeg  -1.61577 -9.4202 -6.39927
RightLeg  5.59345 -1.61231 4.48205
RightFoot  -3.24644 -0.0674598 0.650563
RightToes  0.000482159 0.542163 -0.142577
Spine  6.29096 1.22615 1.40739
Spine1  -3.51765 1.35237 -0.122354
HEad  5.56161 1.92022 0.816996
LeftShoulder1  0.847988 -1.52299 -9.40843
LeftArm  -23.8837 11.3011 -11.6411
LeftForeArm  18.7653 -3.85038 0.784429
LeftHand  -0.25398 0.0180481 5.50724
RightShoulder  0.566772 -0.0800963 9.18805
RightArm  -25.0744 -5.46508 6.9646
RightForeArm  -1.48376 3.85105 1.73819
RightHand  -2.96093 8.98086 -24.0188
LeftUpLeg  -1.48692 5.03542 1.9306
LeftLeg  6.35009 13.3328 -1.83532
LeftFoot  -6.76598 0.105111 -1.60889
LeftToes  1.06246e-005 4.65855e-005 -8.18503e-006
17
root  -67.2403 41.4997 -1.88926 5.13591 84.7917 3.84186
RightUpLeg  -1.22955 -9.56072 -6.72177
RightLeg  5.8812 -0.75732 4.46493
RightFoot  -3.51264 -0.0942621 1.04256
RightToes  0.000482159 0.542163 -0.142577
Spine  6.41505 1.38705 1.95761
Spine1  -2.63938 1.66151 -0.813161
HEad  5.18705 1.65682 0.846675
LeftShoulder1  0.939806 -1.6815 -10.792
LeftArm  -25.3375 12.5328 -11.7762
LeftForeArm  18.9177 -6.66719 0.922335
LeftHand  -0.25398 0.0180481 5.50724
RightShoulder  0.674306 0.369142 10.1123
RightArm  -25.6187 -6.05365 8.02011
RightForeArm  -4.32203 5.22446 2.03929
RightHand  -3.10415 9.23041 -24.7189
LeftUpLeg  -0.948191 5.32313 1.71316
LeftLeg  6.83529 13.8966 -1.60463
LeftFoot  -7.79854 0.096807 -1.62004
LeftToes  1.06246e-005 4.65855e-005 -8.18503e-006
18
root  -67.1408 41.4728 -2.05325 4.24537 83.9856 3.38785
RightUpLeg  -0.966446 -9.63184 -7.01852
RightLeg  6.36171 0.0282146 4.33475
RightFoot  -3.88796 -0.0996849 1.12206
RightToes  0.000482159 0.542163 -0.142577
Spine  6.52096 1.59573 2.59794
Spine1  -1.89108 2.08061 -1.79587
HEad  5.11108 0.924501 1.08279
LeftShoulder1  1.12957 -2.2145 -12.6022
LeftArm  -26.7939 14.1572 -11.8175
LeftForeArm  19.5324 -10.1034 0.823034
LeftHand  -0.25398 0.0180481 5.50724
RightShoulder  0.900765 1.23431 11.9098
RightArm  -25.3911 -7.32613 8.76604
RightForeArm  -6.14027 7.26063 2.56901
RightHand  -3.14463 9.27026 -24.9594
LeftUpLeg  -0.300489 5.62699 1.52157
LeftLeg  7.13299 14.4527 -1.53813
LeftFoot  -8.81529 0.0929435 -1.81941
LeftToes  1.06246e-005 4.65855e-005 -8.18503e-006
19
root  -67.0231 41.4344 -2.24259 3.24065 83.3643 2.84675
RightUpLeg  -0.707968 -9.70988 -7.31958
RightLeg  6.96339 0.887247 4.13856
RightFoot  -4.35066 -0.132093 1.68297
RightToes  0.000482159 0.542163 -0.142577
Spine  6.68917 1.72087 3.14756
Spine1  -1.11998 2.3901 -2.61073
HEad  5.29927 0.540124 1.17436
LeftShoulder1  1.38283 -2.77783 -15.094
LeftArm  -28.8742 15.9386 -11.8604
LeftForeArm  21.6516 -13.9303 0.208109
LeftHand  -0.25398 0.0180481 5.50724
RightShoulder  1.13146 1.98388 13.7098
RightArm  -24.6218 -8.66992 10.0915
RightForeArm  -5.496 9.54937 3.1322
RightHand  -3.18155 9.45261 -24.9455
LeftUpLeg  0.266467 5.87606 1.28498
LeftLeg  7.63806 14.785 -1.34923
LeftFoot  -9.7852 0.0862743 -2.02163
LeftToes  1.06246e-005 4.65855e-005 -8.18503e-006
20
root  -66.8907 41.3757 -2.45458 2.22976 83.0311 2.42419
RightUpLeg  -0.426527 -9.98371 -7.63441
RightLeg  7.91329 1.75835 3.79395
RightFoot  -4.93664 -0.183716 2.68367
RightToes  0.000482159 0.542163 -0.142577
Spine  7.04058 1.74173 3.36652
Spine1  -0.266071 2.49616 -2.89446
HEad  5.63982 0.678514 0.923548
LeftShoulder1  1.68809 -3.28939 -18.1711
LeftArm  -31.5965 17.7919 -12.2179
LeftForeArm  25.3595 -17.7619 -1.12599
LeftHand  -0.25398 0.0180481 5.50724
RightShoulder  1.29935 2.39972 15.2331
RightArm  -23.4352 -9.74316 12.1884
RightForeArm  -2.5001 11.5989 3.54836
RightHand  -3.1954 9.68149 -24.6886
LeftUpLeg  0.801737 6.06609 0.969314
LeftLeg  8.4274 14.7881 -0.997245
LeftFoot  -10.7803 0.0748933 -2.08103
LeftToes  1.06246e-005 4.65855e-005 -8.18503e-006
21
root  -66.7463 41.2884 -2.68572 1.79488 82.8755 2.62722
RightUpLeg  -0.500649 -10.6253 -7.85139
RightLeg  9.7477 2.5992 3.07215
RightFoot  -5.82254 -0.183917 2.9717
RightToes  0.000482159 0.542163 -0.142577
Spine  7.47527 1.74616 3.27039
Spine1  0.630335 2.51944 -2.86757
HEad  5.92472 0.665924 0.573322
LeftShoulder1  2.06054 -3.92002 -21.2896
LeftArm  -33.2994 19.6915 -13.2792
LeftForeArm  28.8781 -21.0502 -2.56591
LeftHand  -0.25398 0.0180481 5.50724
RightShoulder  1.49984 2.82078 17.0774
RightArm  -21.6547 -10.8622 14.3035
RightForeArm  0.944245 13.3214 3.84271
RightHand  -3.08712 9.49967 -24.1664
LeftUpLeg  1.31458 6.34164 0.596091
LeftLeg  9.3665 14.4731 -0.675018
LeftFoot  -11.8623 0.0613631 -2.13067
LeftToes  1.06246e-005 4.65855e-005 -8.18503e-006
22
root  -66.5985 41.1636 -2.93076 2.32003 82.5927 3.68001
RightUpLeg  -1.44431 -11.0507 -7.87145
RightLeg  12.8067 3.29777 1.88697
RightFoot  -6.93482 -0.156868 2.88447
RightToes  0.000482159 0.542163 -0.142577
Spine  7.86249 1.83367 3.03656
Spine1  1.52877 2.63286 -2.97792
HEad  5.96488 0.105513 0.327896
LeftShoulder1  2.47748 -4.63973 -24.122
LeftArm  -33.224 21.4981 -15.1582
LeftForeArm  31.2901 -23.4267 -3.36336
LeftHand  -0.25398 0.0180481 5.50724
RightShoulder  1.82992 3.5165 19.6176
RightArm  -19.2237 -12.3379 15.9565
RightForeArm  2.94954 14.9805 4.14092
RightHand  -2.85658 8.80266 -23.4858
LeftUpLeg  1.63652 6.8363 0.160991
LeftLeg  10.4819 14.0901 -0.455535
LeftFoot  -12.9388 0.0474113 -2.16862
LeftToes  1.06246e-005 4.65855e-005 -8.18503e-006
23
root  -66.4584 40.9966 -3.18061 3.11671 81.9118 4.97471
RightUpLeg  -3.46256 -9.38415 -7.86852
RightLeg  17.3908 2.30774 0.607067
RightFoot  -7.57915 -0.196398 4.40495
RightToes  0.000482159 0.542163 -0.142577
Spine  8.44662 2.03533 2.70599
Spine1  2.40293 2.85961 -3.22747
HEad  5.70593 -0.373596 0.017989
LeftShoulder1  2.87356 -5.19248 -26.8601
LeftArm  -32.2125 23.0199 -17.7419
LeftForeArm  33.0712 -24.7316 -3.56284
LeftHand  -0.25398 0.0180481 5.50724
RightShoulder  2.23722 4.28883 22.4566
RightArm  -16.5499 -13.9017 17.5193
RightForeArm  3.86501 16.6138 4.37934
RightHand  -2.55924 7.92737 -22.4561
LeftUpLeg  1.74553 7.50593 -0.335804
LeftLeg  11.9838 14.004 -0.177834
LeftFoot  -13.9811 0.0380627 -1.99477
LeftToes  1.06246e-005 4.65855e-005 -8.18503e-006
24
root  -66.3173 40.8133 -3.42553 3.24472 80.8727 5.82796
RightUpLeg  -6.41194 -5.8948 -8.07857
RightLeg  23.9024 -1.11904 -0.793712
RightFoot  -6.66865 -0.349085 7.28584
RightToes  0.000482159 0.542163 -0.142577
Spine  9.53973 2.28326 2.18588
Spine1  3.31336 3.06667 -3.27401
HEad  5.17162 0.0432066 -0.526353
LeftShoulder1  3.22032 -5.49757 -29.6585
LeftArm  -30.917 24.1803 -20.9539
LeftForeArm  34.0729 -24.8156 -3.52736
LeftHand  -0.25398 0.0180481 5.50724
RightShoulder  2.62399 4.90362 25.0937
RightArm  -14.3378 -15.1148 19.5188
RightForeArm  5.61515 17.7743 4.43041
RightHand  -2.2068 7.07946 -20.7356
LeftUpLeg  2.03264 8.2351 -0.826941
LeftLeg  13.645 14.2805 0.231733
LeftFoot  -15.0452 0.0374047 -1.63432
LeftToes  1.06246e-005 4.65855e-005 -8.18503e-006
25
root  -66.1373 40.6791 -3.66704 2.10619 79.7799 5.55954
RightUpLeg  -9.95594 -3.95632 -7.98829
RightLeg  31.4968 -4.51053 -3.23
RightFoot  -3.58432 -0.586647 8.39821
RightToes  0.000482159 0.542163 -0.142577
Spine  10.8073 2.4198 1.73696
Spine1  4.41323 3.12392 -2.9694
HEad  4.43395 1.19635 -1.15955
LeftShoulder1  3.54209 -5.7427 -32.2074
LeftArm  -28.8794 25.0528 -24.7638
LeftForeArm  33.3928 -23.5274 -3.27192
LeftHand  -0.25398 0.0180481 5.50724
RightShoulder  2.98935 5.42784 27.4377
RightArm  -12.8868 -15.9977 22.1424
RightForeArm  8.59427 18.0819 4.35551
RightHand  -1.84477 6.19979 -18.7187
LeftUpLeg  2.83866 8.97641 -1.12799
LeftLeg  14.6765 14.6569 0.567498
LeftFoot  -15.9695 0.0436683 -1.28729
LeftToes  1.06246e-005 4.65855e-005 -8.18503e-006
26
root  -65.8784 40.5937 -3.89008 0.785805 78.8224 4.79513
RightUpLeg  -13.8432 -3.34705 -7.39184
RightLeg  38.3792 -6.63019 -5.83315
RightFoot  0.18275 -0.638881 6.37377
RightToes  0.000482159 0.542163 -0.142577
Spine  11.5221 2.35668 1.42474
Spine1  5.63566 3.00224 -2.63776
HEad  3.77388 2.27042 -1.69432
LeftShoulder1  3.84398 -6.04 -34.1681
LeftArm  -25.4934 25.8041 -28.9693
LeftForeArm  31.7242 -21.0537 -2.78113
LeftHand  -0.25398 0.0180481 5.50724
RightShoulder  3.33529 5.91044 29.4526
RightArm  -12.018 -17.0059 25.4952
RightForeArm  11.0774 17.7339 4.31842
RightHand  -1.56162 5.21883 -17.3449
LeftUpLeg  3.73204 9.66126 -1.28738
LeftLeg  15.0706 15.0114 0.721804
LeftFoot  -16.6987 0.0525616 -1.01668
LeftToes  1.06246e-005 4.65855e-005 -8.18503e-006
27
root  -65.5156 40.5308 -4.08039 -0.2885 78.0036 3.7357
RightUpLeg  -17.435 -3.67743 -6.33155
RightLeg  42.3618 -6.1993 -6.28719
RightFoot  2.23565 -0.477928 4.1004
RightToes  0.000482159 0.542163 -0.142577
Spine  11.5802 2.09309 1.20801
Spine1  6.54201 2.6983 -2.45987
HEad  3.63228 3.04734 -2.20136
LeftShoulder1  4.09224 -6.27975 -35.6931
LeftArm  -21.4653 26.6945 -33.1522
LeftForeArm  31.8987 -18.1764 -2.45551
LeftHand  -0.25398 0.0180481 5.50724
RightShoulder  3.5642 6.16546 30.9104
RightArm  -11.6276 -18.5485 29.6505
RightForeArm  11.9729 17.1483 4.39354
RightHand  -1.36325 4.13941 -16.8382
LeftUpLeg  4.35853 10.0123 -1.38707
LeftLeg  15.1345 15.5536 0.723872
LeftFoot  -17.2784 0.0614466 -0.812707
LeftToes  1.06246e-005 4.65855e-005 -8.18503e-006
28
root  -65.0424 40.4864 -4.24338 -1.71684 77.362 2.0935
RightUpLeg  -19.9258 -4.83905 -4.85717
RightLeg  42.4555 -4.01844 -4.24309
RightFoot  2.19262 -0.51929 4.51224
RightToes  0.000482159 0.542163 -0.142577
Spine  11.5978 1.6492 1.05782
Spine1  6.81659 2.17135 -2.21336
HEad  4.09234 4.06643 -2.81981
LeftShoulder1  4.28139 -6.37062 -37.1782
LeftArm  -18.6125 27.9047 -36.936
LeftForeArm  35.2004 -15.7802 -2.63454
LeftHand  -0.25398 0.0180481 5.50724
RightShoulder  3.61886 6.09497 31.7535
RightArm  -11.7472 -20.6612 34.2959
RightForeArm  12.2185 16.3836 4.53905
RightHand  -1.21159 3.1853 -16.5931
LeftUpLeg  5.05624 9.78328 -1.38113
LeftLeg  14.8819 16.4041 0.598458
LeftFoot  -17.8058 0.0602082 -0.822223
LeftToes  1.06246e-005 4.65855e-005 -8.18503e-006
